PathFileType	4	(X/Y/Z)	Apose_0-50.trc
DataRate	CameraRate	NumFrames	NumMarkers	Units	OrigDataRate	OrigDataStartFrame	OrigNumFrames
30	30	8	22	m	30	0	50
Frame#	Time	Hip			RHip			RKnee			RAnkle			RBigToe			RSmallToe			RHeel			LHip			LKnee			LAnkle			LBigToe			LSmallToe			LHeel			Neck			Head			Nose			RShoulder			RElbow			RWrist			LShoulder			LElbow			LWrist		
		X1	Y1	Z1	X2	Y2	Z2	X3	Y3	Z3	X4	Y4	Z4	X5	Y5	Z5	X6	Y6	Z6	X7	Y7	Z7	X8	Y8	Z8	X9	Y9	Z9	X10	Y10	Z10	X11	Y11	Z11	X12	Y12	Z12	X13	Y13	Z13	X14	Y14	Z14	X15	Y15	Z15	X16	Y16	Z16	X17	Y17	Z17	X18	Y18	Z18	X19	Y19	Z19	X20	Y20	Z20	X21	Y21	Z21	X22	Y22	Z22
1	0.03333333333333333	0.04882455467959962	0.9202691450589336	0.37048558291268086	0.044903322459345626	0.8811648975805623	0.47985763943266313	0.012359450443948018	0.5100008324097988	0.49588686915111224	-0.00399806092975776	0.11299028990481161	0.5170067327459099	0.18886500801221598	0.048385072979153634	0.5645621643338607	0.1517687633544623	0.023577261708038807	0.6138514407268975	-0.043067920759542286	0.042722079629398814	0.49772839345089637	0.049179999670341264	0.880107358726187	0.26408697961939126	0.026075554399211456	0.5086307682676964	0.23056864907451538	0.0019459763223723052	0.12316443519716554	0.20722234533213907	0.21342736461555753	0.04797952820095023	0.18624335816902074	0.17561256289064972	0.029436337693845797	0.13977767784578007	-0.03831736012155176	0.04665232819260681	0.21998441271760855	0.04456026242837431	1.5785492856029646	0.35708841234618005	0.2387546174588579	1.8151508738346638	0.2597471095109671	0.20916450996143882	1.6435218621672618	0.3294549924099002	0.025757899033993538	1.4884799332242644	0.5502323355209576	0.10872185441273523	1.2309198275180036	0.7307836026031342	0.17729564687195798	1.0373968823559254	0.8909405558637835	0.00042527355968707776	1.4792892248226441	0.16854981916497613	0.02572488299609156	1.2237738060798806	0.010738137611031125	0.081147107261075	1.0186242601677473	-0.1339306913525118
2	0.06666666666666667	0.05147738498658986	0.9213046918111083	0.3704235938994309	0.04419335359501274	0.8789150729575479	0.4760831106331945	0.014964003471072256	0.5096246136278022	0.49671198188125154	-0.003906112486612812	0.11115192183915355	0.5183606677297482	0.18897243952899853	0.0321051662486123	0.5527981719382276	0.14628396080248554	0.03392575106193765	0.6229735427784703	-0.04117389763993047	0.03696123978628097	0.49980069958676315	0.0461231954913027	0.8796581747782221	0.2605054294961389	0.024709748860735164	0.5076257587556019	0.2323551818743645	0.0028489578961592506	0.12091681344226042	0.20615063982169773	0.20937949489491062	0.03571425510059118	0.19395579735792556	0.16349583258326764	0.035003038285437306	0.12608558462433048	-0.04050199917483122	0.04234136610256517	0.2177641724875234	0.042689224151778664	1.576874105787186	0.3575494918756254	0.1666179858161186	1.802600923009018	0.33930047868601937	0.20997264158713008	1.633755458018572	0.3346099866113273	0.02436916671181676	1.484880683465288	0.5492481179112483	0.1048710301544257	1.2305168926108643	0.7263676124851964	0.16997450933157032	1.039308582503281	0.8890947660669208	0.0031058525806652226	1.4759952603316697	0.16023603525281896	0.028266359190555163	1.2231214835814315	0.014970942565512374	0.08266560357989595	1.0143505033348514	-0.13718906799077954
3	0.1	0.041716836808551615	0.9219588316655809	0.36749263136500426	0.032777894969776705	0.882194276745823	0.4728004113189005	0.012342433886048651	0.5070367221438289	0.5003901806094507	-0.005108013088728808	0.11310522429431141	0.5185896434342167	0.18142528111605674	0.0325588453283929	0.5549063852918598	0.1473958719889563	0.03556133725051215	0.6263137146292799	-0.03938831057689281	0.03978094983011367	0.4975665853785308	0.03616121143371388	0.8789954704353184	0.25484578169125277	0.02032495241949577	0.5087545995995366	0.23005298327967527	0.007364996396455678	0.11510188509138765	0.20842202481252578	0.22129705215162992	0.0478452873631523	0.1878476309122145	0.16466428815458845	0.0371219537924169	0.1255651063717988	-0.03568307149868203	0.044301981923779356	0.21846722353628736	0.061238268814998005	1.5928090529828114	0.36157757218523545	0.32975390495063045	1.778571143619323	0.2579002370886454	0.22742357525216392	1.5841132023012698	0.33115243269183076	0.02265039838430212	1.4879730088040506	0.5432989176900322	0.0904104844867742	1.232196176283526	0.7252923917029684	0.1489544572730262	1.0418634922080878	0.8957647649676518	0.009045084697545978	1.4778870092054543	0.15464890789460423	0.0160812146225199	1.2263462804705576	0.006931234075299706	0.05565161791426461	1.0124738718904471	-0.14640940883505868
4	0.13333333333333333	0.037563410333382834	0.922302578839633	0.3642505240974815	0.029030774013773825	0.8820916066801161	0.47107516927048043	0.007477984608859356	0.5061783149751637	0.4999664343357747	-0.003001718274781389	0.10905497370749791	0.5162308931716787	0.2024445463738903	0.03951751518283061	0.564545181080169	0.14833510232745997	0.03186415292623307	0.6278959890130622	-0.037455980780963884	0.03608709701207104	0.496038690879086	0.03190580991418466	0.8838695667940593	0.2531724307140752	0.01539425621151963	0.5085745472966314	0.22895561052749513	0.007962009691550326	0.11489068945401743	0.21064267658336638	0.2188145559571505	0.04331619360956678	0.19040324304484743	0.16692721001702493	0.033353455580104045	0.1253015593424548	-0.04392551269276573	0.05598569992876166	0.20208107098878436	0.06587586836650612	1.5912684134520463	0.364771454804154	0.3229387922894038	1.7675943568279668	0.2679875621387132	0.22725969930597134	1.5737912450651845	0.3315337174678659	0.027055684955998697	1.489150856553207	0.5439264186507171	0.08719196750042142	1.2330327630102025	0.7263068325365636	0.1372497047857834	1.0416803002802892	0.8974785324718281	0.009855028865185517	1.4779771491133895	0.1554630823630144	0.012775501287060944	1.22849000005307	0.005385768015758029	0.04925427207711259	1.0150311575389461	-0.14681185431563507
5	0.16666666666666666	0.034306439429161596	0.9223150089880497	0.3658704811977556	0.025222509409786577	0.8827721480005929	0.47059324987459356	0.0034571243002342934	0.506985232998975	0.5001295637834225	-0.004303474793107791	0.10850430603851192	0.5154916651828295	0.19041482330676168	0.03172588506960744	0.5622279931941304	0.14630174458502426	0.029734868795924626	0.6300516821369189	-0.03823396437592476	0.034092668849518774	0.4973361553718891	0.02975157412628597	0.8844919680122733	0.2551546971351981	0.01112188500176728	0.5096172577602269	0.2297579364461662	0.003292907103790922	0.12142743880137491	0.20901107237147074	0.22019558349364404	0.04510113756216455	0.1925370898980654	0.1691339344239311	0.03503646671648768	0.12729708480354504	-0.05195170457807879	0.040041953393634394	0.20565394977593784	0.05457582613567444	1.5694800611117437	0.3559798269405937	0.3378869792033447	1.764918077347097	0.2612201826183177	0.23287556644827104	1.5694934375719733	0.33317657916614307	0.025552455240745228	1.4898603444836165	0.5431119589800605	0.08502028717297545	1.2336584859164765	0.7282314606694705	0.13391566293382207	1.0441302824845884	0.8984494446161762	0.015143785402796553	1.480037434698438	0.1532380704384959	0.012470175541401519	1.229027252158154	0.004291071597140098	0.04682678667581744	1.0122747928351494	-0.14883630669032216
6	0.2	0.034185213235188326	0.9245780903836226	0.36472128990137076	0.025016132888892838	0.8850776225935946	0.467336116257138	0.00457121062556473	0.5094344603315228	0.5000428878466272	-0.003636097910334113	0.10991834579689001	0.5161452186732541	0.20317918724676606	0.030670516343572072	0.5672899679361192	0.1549171147381629	0.02023627204838715	0.6271901597238841	-0.0360192351437124	0.034901028350977914	0.4967749952825148	0.028793139238632217	0.8908264152599854	0.2518142225191685	0.009340794773751977	0.5107903446977275	0.23009659723787865	0.007298652573112594	0.11554822499656858	0.2098697013033524	0.21673013617533812	0.043192865103813094	0.19149348537093866	0.16588955260262417	0.033322235628719846	0.1262901354199615	-0.040767531512236416	0.057431381209201375	0.19878868940386624	0.05570041959571202	1.56873324008584	0.3554885156573269	0.2578883955419059	1.7529600070262934	0.34263360612839144	0.3171572358421205	1.6127424892253444	0.3361766787367541	0.020243796421840318	1.4910087427237508	0.5390320615411323	0.08203046462315157	1.2327785921704015	0.7283229115638993	0.131385227503161	1.043331249314444	0.8994537917614243	0.017310167725375532	1.4809004087844653	0.1553593299313122	0.010382718069631657	1.2287091908383636	0.005303345333628137	0.04581928595683093	1.0135925909648316	-0.1497820324156155
7	0.23333333333333334	0.03266871750209525	0.9251176050797495	0.36256719335617954	0.024748670310665983	0.8910307681736114	0.46605061865817005	0.000979029358659612	0.5094057209962427	0.4980665453283068	-0.004336415626848608	0.11143699344024768	0.5160122939230433	0.2029094530553653	0.027888096131037474	0.5679079759725582	0.15337489421969283	0.01774861002203808	0.6278025527997912	-0.047477599713726684	0.047672425164837155	0.5082904073408231	0.025871425428014582	0.8976330446442193	0.24668742502478877	0.008242623725506793	0.5123829606716311	0.22688070750978379	0.00048236081859340013	0.12250587204279581	0.20657196766533675	0.21563123463303235	0.04618406310118236	0.19196511994410517	0.16522559921267713	0.034776392188154225	0.12773034082148085	-0.04184809278878384	0.05756256076247168	0.19608370867993352	0.05774240711759413	1.5658604042871322	0.35287097437918746	0.2621653998041953	1.7670687548022388	0.33406017518413206	0.31507761085858244	1.6103040095866104	0.3340226190600879	0.019783643252691482	1.493330786736821	0.5363726734067028	0.0606298053390026	1.2319997403412044	0.7218464773606366	0.13098531800663618	1.0468831719866778	0.8993368710868582	0.015733869733554045	1.4794165525737821	0.15788794449082463	0.009943635144813313	1.229222023568713	0.005153043176509639	0.04522363509488685	1.011672794667972	-0.15108583477807752
8	0.26666666666666666	0.03349355402773166	0.9247598657224109	0.36077679917062033	0.024798812794401603	0.8895090333635509	0.46536991827593144	0.0026367117583416303	0.5076721496094532	0.5005102491851108	-0.01139243015058383	0.11758024079385355	0.5162753856243416	0.2002305437284452	0.026544430748869374	0.5684744254091411	0.15288989820008725	0.017834455916262527	0.6258019359405652	-0.03658886725699155	0.03548748792125609	0.49661231093251307	0.025973915634610722	0.8954631451415903	0.24543196813617574	0.006779822469406899	0.511618409018621	0.22605653855523092	0.005241133372995555	0.11479587491658828	0.20865592000543032	0.21640723310016358	0.04443042626471556	0.19272692500867944	0.1666595039004749	0.034538286697363585	0.12662225031715965	-0.052974255763325755	0.041611555690872444	0.20700172310419115	0.05661146598220819	1.5660751654750622	0.35250156497431334	0.2637121676501127	1.7545767583116685	0.33990325735762084	0.31643305460205373	1.6093796809033603	0.3350805974448868	0.01955666365897293	1.4942514191007485	0.5348580119400543	0.06073782002913441	1.2311356443263	0.7227057761712585	0.1269196713664191	1.0440157446458906	0.9005270522754486	0.01873156213138009	1.4814047617009432	0.15569309522546126	0.01165206260017997	1.229338578967077	0.004153710738726776	0.04524463927720861	1.008625705062814	-0.15144472075169088
